<?xml version="1.0" encoding="iso-8859-1"?>
<!-- Uploaded to: SVG Repo, www.svgrepo.com, Generator: SVG Repo Mixer Tools -->
<svg height="800px" width="800px" version="1.1" id="Layer_1" xmlns="http://www.w3.org/2000/svg" xmlns:xlink="http://www.w3.org/1999/xlink" 
	 viewBox="0 0 503.601 503.601" xml:space="preserve">
<g>
	<polygon style="fill:#0D161C;" points="191.056,0.003 312.548,0.003 251.802,130.451 	"/>
	<path style="fill:#2C3E50;" d="M95.598,34.715l95.458-34.712l60.746,130.447l-43.416,86.78l43.416,242.705l-15.438,29.036
		c-27.318,19.118-63.575,19.534-91.318,1.033l-6.057-4.035l7.559-163.163c0.746-12.713,1.119-25.444,1.119-38.183
		c0-50.723-5.936-101.272-17.686-150.615L95.598,34.715z"/>
	<g>
		<path style="fill:#1E2D3A;" d="M408.005,34.715L312.548,0.003l-60.772,130.447l-43.39,86.78l43.416,242.705l15.438,29.036
			c27.318,19.118,63.575,19.534,91.318,1.033l6.057-4.035l-7.559-163.163c-0.746-12.713-1.119-25.444-1.119-38.183
			c0-50.723,5.936-101.272,17.686-150.615L408.005,34.715z"/>
		<polygon style="fill:#1E2D3A;" points="251.802,130.447 237.683,158.668 161.325,78.136 182.378,60.746 138.988,52.068 191.056,0 
					"/>
	</g>
	<polygon style="fill:#2C3E50;" points="251.802,130.447 208.386,217.227 342.278,78.136 321.226,60.746 364.615,52.068 312.548,0 	
		"/>
	<path style="fill:#1E2D3A;" d="M146.543,322.806c0.746-12.713,1.119-25.452,1.119-38.183c0-50.723-5.936-101.272-17.677-150.623
		L95.595,34.715c-9.58,0-8.678,7.767-8.678,17.356v329.763c0,9.589,7.775,17.356,17.356,17.356h21.409
		c9.19,0,16.792-7.159,17.33-16.341L146.543,322.806z"/>
	<path style="fill:#2C3E50;" d="M408.005,34.715L373.623,134c-11.75,49.352-17.686,99.901-17.686,150.623
		c0,12.731,0.373,25.47,1.119,38.183l3.532,60.043c0.547,9.181,8.14,16.341,17.33,16.341h21.409c9.589,0,17.356-7.767,17.356-17.356
		V52.071C416.683,42.482,417.594,34.715,408.005,34.715"/>
	<polygon style="fill:#1E2D3A;" points="144.197,373.478 199.736,382.113 199.736,347.401 145.802,338.766 	"/>
	<polygon style="fill:#2C3E50;" points="357.798,338.767 303.873,347.393 303.873,382.105 359.403,373.479 	"/>
	<g>
		<path style="fill:#3E5A70;" d="M260.456,312.684h-69.424c-4.79,0-8.678-3.888-8.678-8.678c0-4.79,3.888-8.678,8.678-8.678h69.424
			c4.79,0,8.678,3.888,8.678,8.678C269.134,308.797,265.247,312.684,260.456,312.684"/>
		<path style="fill:#3E5A70;" d="M199.711,321.362c-4.79,0-8.678-3.888-8.678-8.678v-17.356c0-4.79,3.888-8.678,8.678-8.678
			s8.678,3.888,8.678,8.678v17.356C208.389,317.475,204.501,321.362,199.711,321.362"/>
		<path style="fill:#3E5A70;" d="M251.778,321.362c-4.79,0-8.678-3.888-8.678-8.678v-17.356c0-4.79,3.888-8.678,8.678-8.678
			c4.79,0,8.678,3.888,8.678,8.678v17.356C260.456,317.475,256.569,321.362,251.778,321.362"/>
		<path style="fill:#3E5A70;" d="M251.778,251.939h-69.424c-4.79,0-8.678-3.888-8.678-8.678s3.888-8.678,8.678-8.678h69.424
			c4.79,0,8.678,3.888,8.678,8.678S256.569,251.939,251.778,251.939"/>
		<path style="fill:#3E5A70;" d="M191.033,260.617c-4.79,0-8.678-3.888-8.678-8.678v-17.356c0-4.79,3.888-8.678,8.678-8.678
			s8.678,3.888,8.678,8.678v17.356C199.711,256.729,195.823,260.617,191.033,260.617"/>
		<path style="fill:#3E5A70;" d="M243.1,260.617c-4.79,0-8.678-3.888-8.678-8.678v-17.356c0-4.79,3.888-8.678,8.678-8.678
			s8.678,3.888,8.678,8.678v17.356C251.778,256.729,247.891,260.617,243.1,260.617"/>
	</g>
</g>
</svg>