<?xml version="1.0" encoding="iso-8859-1"?>
<!-- Uploaded to: SVG Repo, www.svgrepo.com, Generator: SVG Repo Mixer Tools -->
<svg height="800px" width="800px" version="1.1" id="Layer_1" xmlns="http://www.w3.org/2000/svg" xmlns:xlink="http://www.w3.org/1999/xlink" 
	 viewBox="0 0 511.997 511.997" xml:space="preserve">
<g>
	<polygon style="fill:#18384C;" points="150.068,61.793 361.93,61.793 361.93,0 150.068,0 	"/>
	<path style="fill:#4482C3;" d="M255.999,61.79v114.759c9.825,0,17.858,7.83,18.123,17.646l7.91,300.615
		c0.247,9.56,8.077,17.187,17.646,17.187h44.597c9.754,0,17.655-7.901,17.655-17.655V61.79H255.999z"/>
	<g>
		<path style="fill:#285680;" d="M255.999,176.549V61.79H150.068v432.552c0,9.754,7.901,17.655,17.655,17.655h44.597
			c9.569,0,17.399-7.627,17.646-17.187l7.91-300.615C238.14,184.379,246.174,176.549,255.999,176.549"/>
		<path style="fill:#285680;" d="M361.93,123.584L361.93,123.584c-24.373,0-44.138-19.765-44.138-44.138V61.79h44.138V123.584z"/>
	</g>
	<path style="fill:#4482C3;" d="M150.068,123.584L150.068,123.584c24.373,0,44.138-19.765,44.138-44.138V61.79h-44.138V123.584z"/>
	<polygon style="fill:#285680;" points="150.068,35.31 361.93,35.31 361.93,17.655 150.068,17.655 	"/>
	<g>
		<path style="fill:#4482C3;" d="M185.378,264.825c4.882,0,8.828-3.955,8.828-8.828c0-4.873-3.946-8.828-8.828-8.828h-35.31v17.655
			H185.378z"/>
		<path style="fill:#4482C3;" d="M167.723,300.135c4.882,0,8.828-3.955,8.828-8.828c0-4.873-3.946-8.828-8.828-8.828h-17.655v17.655
			H167.723z"/>
	</g>
</g>
</svg>